# xmcd
#
# Track frame offsets: 
#        150
#        13484
#        31934
#        41203
#        47474
#        52322
#        86822
#        105668
#        114717
#        117730
#        128068
#        162414
#
# Disc length: 2221 seconds
#
# Revision: 0
# Processed by: cddbd v1.5.2PL0 Copyright (c) Steve Scherf et al.
# Submitted via: ExactAudioCopy v0.95b4
#
DISCID=af08ab0c
DTITLE=Takeshi Nishimoto - Monologue
DYEAR=2006
DGENRE=Acoustic
TTITLE0=Memory 4 am
TTITLE1=Rider
TTITLE2=Miles and thousands
TTITLE3=Looking up the sky
TTITLE4=Voice 1 - slow door
TTITLE5=Interweave
TTITLE6=New morning
TTITLE7=She walks in a dream
TTITLE8=Voice 2 - bells
TTITLE9=Reflections
TTITLE10=Coming home
TTITLE11=Voice 3 - vision
EXTD=
EXTT0=
EXTT1=
EXTT2=
EXTT3=
EXTT4=
EXTT5=
EXTT6=
EXTT7=
EXTT8=
EXTT9=
EXTT10=
EXTT11=
PLAYORDER=
